<?xml version="1.0" standalone="no"?>
<!DOCTYPE svg PUBLIC "-//W3C//DTD SVG 20010904//EN"
 "http://www.w3.org/TR/2001/REC-SVG-20010904/DTD/svg10.dtd">
<svg version="1.0" xmlns="http://www.w3.org/2000/svg"
 width="872.000000pt" height="872.000000pt" viewBox="0 0 872.000000 872.000000"
 preserveAspectRatio="xMidYMid meet">
<metadata>
Created by potrace 1.14, written by Peter Selinger 2001-2017
</metadata>
<g transform="translate(0.000000,872.000000) scale(0.100000,-0.100000)"
fill="#000000" stroke="none">
<path d="M0 4360 l0 -2760 518 0 517 0 0 2760 0 2760 -517 0 -518 0 0 -2760z"/>
<path d="M3823 4360 l0 -2760 521 2 521 3 0 2758 0 2757 -521 0 -521 0 0
-2760z"/>
<path d="M5099 7118 c-1 -2 -2 -247 -3 -545 l-1 -543 1142 0 1143 0 0 545 0
545 -1140 0 c-627 0 -1141 -1 -1141 -2z"/>
<path d="M7645 4363 l0 -2758 538 -3 537 -2 0 2760 0 2760 -538 0 -537 0 0
-2757z"/>
<path d="M1262 4811 c-7 -17 -9 -991 -2 -992 3 -1 524 -2 1158 -3 l1152 -1 0
505 0 506 -1151 0 c-977 -1 -1152 -3 -1157 -15z"/>
<path d="M5099 4825 c-1 0 -2 -226 -3 -502 -1 -330 2 -504 9 -506 5 -2 413 -3
905 -3 l895 1 1 503 c1 362 -2 502 -10 503 -8 2 -1792 5 -1797 4z"/>
</g>
</svg>
